
<svg version="1.0" xmlns="http://www.w3.org/2000/svg"
 width="512.000000pt" height="512.000000pt" viewBox="0 0 512.000000 512.000000"
 preserveAspectRatio="xMidYMid meet">

<g transform="translate(0.000000,512.000000) scale(0.100000,-0.100000)"
stroke="none">
<path d="M2060 4945 c-293 -47 -576 -227 -747 -476 -83 -121 -153 -299 -178
-454 -44 -272 24 -579 178 -804 174 -253 455 -431 757 -476 244 -38 469 1 692
117 524 274 745 923 494 1454 -118 249 -280 415 -521 534 -218 108 -439 142
-675 105z"/>
<path d="M4095 3506 c-37 -17 -70 -52 -84 -89 -7 -17 -11 -127 -11 -282 l0
-254 -269 -3 c-254 -3 -271 -4 -297 -24 -53 -39 -69 -71 -69 -134 0 -63 16
-95 69 -134 26 -20 43 -21 296 -24 l269 -3 3 -269 c3 -253 4 -270 24 -296 39
-53 71 -69 134 -69 63 0 95 16 134 69 20 26 21 43 24 296 l3 269 269 3 c253 3
270 4 296 24 53 39 69 71 69 134 0 63 -16 95 -69 134 -26 20 -43 21 -296 24
l-269 3 -3 269 c-3 253 -4 270 -24 296 -11 15 -32 37 -46 47 -34 25 -113 32
-153 13z"/>
<path d="M1995 2385 c-700 -85 -1307 -516 -1620 -1150 -112 -227 -179 -466
-205 -727 -21 -211 -10 -267 64 -322 l27 -21 1979 0 1979 0 27 21 c73 54 84
105 64 315 -47 508 -258 951 -626 1311 -164 160 -320 270 -529 373 -357 176
-768 247 -1160 200z"/>
</g>
</svg>
